<svg width="592" height="214" viewBox="0 0 592 214" fill="none" xmlns="http://www.w3.org/2000/svg">
<path d="M-1087.19 -764.652C-623.559 -347.683 -575.143 -284.8 -582.795 13.8974C-582.026 170.285 -539.671 516.545 -295.853 629.735C-52.0347 742.924 165.054 1143.86 244.48 1332.6" stroke="#6D6D6D" stroke-width="0.5"/>
<path d="M-1074.92 -707.66C-587.343 -319.152 -540.628 -255.676 -525.068 39.4193C-507.366 194.938 -449.015 543.349 -198.937 641.737C51.1401 740.124 288.728 1122.76 379.262 1306.44" stroke="#6D6D6D" stroke-width="0.5"/>
<path d="M-1062.49 -651.145C-552.714 -292.491 -507.437 -228.005 -469.152 61.7845C-434.654 214.965 -359.888 564.831 -104.448 648.065C150.992 731.298 407.673 1094.62 508.991 1272.58" stroke="#6D6D6D" stroke-width="0.5"/>
<path d="M-1049.94 -595.111C-519.788 -267.596 -475.641 -201.713 -415.239 81.1135C-364.196 230.501 -272.626 581.083 -12.7385 648.863C247.149 716.644 521.471 1059.74 633.209 1231.34" stroke="#6D6D6D" stroke-width="0.5"/>
<path d="M-1037.3 -539.554C-488.672 -244.352 -445.308 -176.72 -363.512 97.5402C-296.287 241.701 -187.553 592.216 75.8496 644.302C339.253 696.388 629.725 1018.45 751.482 1183.08" stroke="#6D6D6D" stroke-width="0.5"/>
<path d="M-1024.6 -484.469C-459.465 -222.638 -416.5 -152.943 -314.143 111.211C-231.212 248.744 -104.989 598.369 160.985 634.573C426.96 670.777 732.06 971.098 863.399 1128.17" stroke="#6D6D6D" stroke-width="0.5"/>
<path d="M-1011.88 -429.849C-432.258 -202.328 -389.274 -130.295 -267.296 122.28C-169.242 251.823 -25.2437 599.692 242.349 619.885C509.942 640.078 828.121 918.062 968.573 1067.01" stroke="#6D6D6D" stroke-width="0.5"/>
<path d="M-999.154 -375.685C-407.134 -183.289 -363.683 -108.686 -223.122 130.915C-110.636 251.152 51.3824 596.363 319.634 600.473C587.886 604.583 917.581 859.74 1066.64 1000.02" stroke="#6D6D6D" stroke-width="0.5"/>
<path d="M-986.469 -321.964C-384.167 -165.383 -339.776 -88.027 -181.767 137.288C-55.6394 246.96 124.598 588.573 392.548 576.586C660.497 564.598 1000.13 796.543 1157.27 927.666" stroke="#6D6D6D" stroke-width="0.5"/>
<path d="M-973.844 -268.676C-363.421 -148.471 -317.592 -68.2248 -143.358 141.583C-4.4783 239.491 194.128 576.532 460.815 548.49C727.502 520.449 1075.5 728.903 1240.14 850.394" stroke="#6D6D6D" stroke-width="0.5"/>
<path d="M-961.307 -215.804C-344.95 -132.406 -297.169 -49.1839 -108.015 143.991C42.6359 229.006 259.709 560.47 524.177 516.475C788.646 472.479 1143.43 657.27 1315 768.694" stroke="#6D6D6D" stroke-width="0.5"/>
<path d="M-948.882 -163.333C-328.801 -117.04 -278.54 -30.8084 -75.8432 144.708C85.5084 215.779 321.089 540.631 582.391 480.84C843.694 421.048 1203.7 582.106 1381.57 683.063" stroke="#6D6D6D" stroke-width="0.5"/>
<path d="M-936.592 -111.244C-315.009 -102.223 -261.729 -13.0006 -46.9358 143.938C123.965 200.096 378.037 517.275 635.236 441.902C892.436 366.53 1256.13 503.887 1439.66 594.014" stroke="#6D6D6D" stroke-width="0.5"/>
<path d="M-924.456 -59.5197C-303.601 -87.802 -246.759 4.33681 -21.3736 141.888C157.85 182.253 430.333 490.677 682.508 399.994C934.683 309.311 1300.53 423.098 1489.07 502.072" stroke="#6D6D6D" stroke-width="0.5"/>
<path d="M-912.493 -8.14118C-294.589 -73.6254 -233.642 21.3017 0.778678 138.77C187.028 162.558 477.78 461.124 724.027 355.456C970.274 249.787 1336.78 340.232 1529.66 407.771" stroke="#6D6D6D" stroke-width="0.5"/>
<path d="M-900.719 42.9127C-287.984 -59.5387 -222.392 37.9931 19.4658 134.801C211.383 141.325 520.193 428.919 759.629 308.643C999.065 188.368 1364.78 255.793 1561.3 311.653" stroke="#6D6D6D" stroke-width="0.5"/>
<path d="M-889.15 93.6615C-283.778 -45.3896 -213.011 54.5081 34.6497 130.198C230.822 118.876 557.41 394.37 789.177 259.92C1020.94 125.47 1384.45 170.285 1583.9 214.268" stroke="#6D6D6D" stroke-width="0.5"/>
<path d="M-877.798 144.125C-281.96 -31.0275 -205.501 70.943 46.3038 125.178C245.271 95.5377 589.286 357.8 812.554 209.656C1035.82 61.5129 1395.75 84.2172 1597.42 116.164" stroke="#6D6D6D" stroke-width="0.5"/>
<path d="M-866.674 194.325C-282.506 -16.3006 -199.855 87.3955 54.417 119.963C254.679 71.6427 615.699 319.539 829.668 158.233C1043.64 -3.07238 1398.68 -1.89928 1601.84 17.8968" stroke="#6D6D6D" stroke-width="0.5"/>
<path d="M-855.785 244.282C-285.381 -1.06167 -196.063 103.96 58.9916 114.771C259.018 47.5247 636.545 279.923 840.448 106.034C1044.35 -67.8548 1393.24 -87.5553 1597.18 -79.9806" stroke="#6D6D6D" stroke-width="0.5"/>
<path d="M-845.144 294.015C-290.548 14.8337 -194.113 120.731 60.0395 109.82C258.278 23.5189 651.739 239.297 844.845 53.4481C1037.95 -132.401 1379.49 -172.244 1583.47 -176.918" stroke="#6D6D6D" stroke-width="0.5"/>
<path d="M-834.752 343.547C-297.953 31.5277 -193.984 137.8 57.5915 105.328C252.475 -0.0388954 661.221 198.01 842.838 0.866582C1024.46 -196.277 1357.52 -255.464 1560.8 -272.37" stroke="#6D6D6D" stroke-width="0.5"/>
<path d="M-824.617 392.895C-307.539 49.1568 -195.653 155.258 51.6873 101.506C241.644 -22.8159 664.949 156.412 834.427 -51.3188C1003.91 -259.049 1327.43 -336.72 1529.28 -365.797" stroke="#6D6D6D" stroke-width="0.5"/>
<path d="M-814.741 442.079C-319.237 67.8545 -199.093 173.192 42.3824 98.5651C225.843 -44.4809 662.906 114.858 819.637 -102.715C976.369 -320.288 1289.36 -415.523 1489.07 -456.667" stroke="#6D6D6D" stroke-width="0.5"/>
<path d="M-805.126 491.118C-332.973 87.7492 -204.272 191.691 29.7426 96.7114C205.151 -64.7073 655.093 73.704 798.517 -152.931C941.94 -379.567 1243.49 -491.396 1440.34 -544.459" stroke="#6D6D6D" stroke-width="0.5"/>
<path d="M-795.775 540.031C-348.665 108.963 -211.156 210.838 13.8461 96.1446C179.666 -83.1749 641.535 33.3048 771.137 -201.581C900.739 -436.466 1190.01 -563.873 1383.29 -628.665" stroke="#6D6D6D" stroke-width="0.5"/>
<path d="M-786.686 588.834C-366.222 131.613 -219.705 230.714 -5.21598 97.0603C149.511 -99.5696 622.278 -5.98585 737.594 -248.279C852.909 -490.573 1129.15 -632.501 1318.16 -708.79" stroke="#6D6D6D" stroke-width="0.5"/>
<path d="M-777.858 637.544C-385.547 155.809 -229.876 251.4 -27.3415 99.6464C114.825 -113.587 597.39 -43.8182 698.006 -292.651C798.622 -541.484 1061.15 -696.843 1245.22 -784.355" stroke="#6D6D6D" stroke-width="0.5"/>
<path d="M-769.292 686.179C-406.54 181.656 -241.626 272.973 -52.4194 104.086C75.7664 -124.929 566.957 -79.8441 652.514 -334.325C738.07 -588.806 986.303 -756.476 1164.78 -854.897" stroke="#6D6D6D" stroke-width="0.5"/>
<path d="M-760.984 734.753C-429.091 209.252 -254.905 295.507 -80.3252 110.552C32.5153 -133.312 531.091 -113.723 601.281 -372.939C671.471 -632.156 904.901 -810.996 1077.13 -919.973" stroke="#6D6D6D" stroke-width="0.5"/>
<path d="M-752.931 783.283C-453.087 238.687 -269.661 319.075 -110.927 119.211C-14.7332 -138.462 489.919 -145.12 544.492 -408.143C599.065 -671.166 817.27 -860.02 982.644 -979.162" stroke="#6D6D6D" stroke-width="0.5"/>
<path d="M-745.129 831.782C-478.408 270.044 -285.839 343.745 -144.082 130.221C-65.7637 -140.118 443.595 -173.709 482.355 -439.595C521.116 -705.481 723.759 -903.18 881.682 -1032.06" stroke="#6D6D6D" stroke-width="0.5"/>
<path d="M-737.573 880.264C-504.932 303.397 -303.382 369.584 -179.638 143.73C-120.347 -138.034 392.287 -199.171 415.096 -466.968C437.905 -734.765 624.734 -940.138 774.64 -1078.29" stroke="#6D6D6D" stroke-width="0.5"/>
<path d="M-730.261 928.743C-532.533 338.815 -322.23 396.655 -217.438 159.876C-178.239 -131.979 336.183 -221.199 342.959 -489.947C349.735 -758.695 520.582 -970.572 661.933 -1117.51" stroke="#6D6D6D" stroke-width="0.5"/>
<path d="M-723.184 977.231C-561.079 376.357 -342.321 425.02 -257.313 178.788C-239.176 -121.738 275.494 -239.497 266.213 -508.232C256.932 -776.968 411.708 -994.186 543.997 -1149.38" stroke="#6D6D6D" stroke-width="0.5"/>
<path d="M-716.339 1025.74C-590.437 416.075 -363.589 454.736 -299.09 200.584C-302.888 -107.11 210.443 -253.781 185.139 -521.541C159.835 -789.301 298.534 -1010.71 421.287 -1173.6" stroke="#6D6D6D" stroke-width="0.5"/>
<path d="M-709.719 1074.28C-620.471 458.01 -385.968 485.857 -342.588 225.372C-369.087 -87.9173 141.275 -263.781 100.038 -529.606C58.8008 -795.431 181.496 -1019.9 294.273 -1189.9" stroke="#6D6D6D" stroke-width="0.5"/>
<path d="M-703.317 1122.87C-651.044 502.199 -409.387 518.437 -387.62 253.248C-437.475 -63.9949 68.2475 -269.24 11.2262 -532.177C-45.7951 -795.114 61.0441 -1021.54 163.44 -1198.04" stroke="#6D6D6D" stroke-width="0.5"/>
<path d="M-697.127 1171.51C-682.014 548.666 -433.775 552.521 -433.996 284.295C-507.746 -35.2032 -8.36294 -269.922 -80.964 -529.028C-153.565 -788.135 -62.3594 -1015.43 29.2884 -1197.8" stroke="#6D6D6D" stroke-width="0.5"/>
<path d="M-691.141 1220.21C-713.244 597.431 -459.059 588.158 -481.52 318.587C-579.584 -1.41574 -88.2687 -265.599 -176.189 -519.947C-264.11 -774.295 -188.244 -1001.42 -107.673 -1189.01" stroke="#6D6D6D" stroke-width="0.5"/>
</svg>
