<svg width="624" height="921" viewBox="0 0 624 921" fill="none" xmlns="http://www.w3.org/2000/svg">
<path d="M1711.05 647.763C1095.12 744.924 1015.78 742.882 788.701 548.687C666.799 450.72 371.271 265.373 129.725 383.333C-111.821 501.294 -559.928 417.147 -756.517 359.863" stroke="#EAEAEA" stroke-width="0.5"/>
<path d="M1659.07 621.367C1050.14 755.06 971.419 751.323 732.503 577.42C600.604 493.148 293.324 318.865 59.3251 451.014C-174.674 583.163 -621.491 526.465 -821.153 480.994" stroke="#EAEAEA" stroke-width="0.5"/>
<path d="M1607.37 595.397C1007.62 765.143 929.017 759.653 679.898 606.737C539.228 536.978 220.474 374.522 -5.13942 520.386C-230.752 666.25 -674.607 636.549 -876.627 603.054" stroke="#EAEAEA" stroke-width="0.5"/>
<path d="M1555.95 569.826C967.539 775.016 888.565 767.769 630.913 636.412C482.76 581.89 152.859 432.03 -63.5599 591.085C-279.979 750.141 -719.248 746.885 -922.9 725.485" stroke="#EAEAEA" stroke-width="0.5"/>
<path d="M1504.85 544.626C929.883 784.524 850.044 775.567 585.558 666.22C431.264 627.555 90.5977 491.062 -115.851 662.739C-322.3 834.416 -755.416 856.957 -959.97 847.73" stroke="#EAEAEA" stroke-width="0.5"/>
<path d="M1454.08 519.768C894.616 793.515 813.427 782.948 543.83 695.933C384.782 673.64 33.7849 551.287 -161.954 734.97C-357.694 918.652 -783.15 966.251 -987.873 969.23" stroke="#EAEAEA" stroke-width="0.5"/>
<path d="M1403.65 495.225C861.701 801.839 778.684 789.812 505.71 725.33C343.336 719.813 -17.5025 612.367 -201.831 807.397C-386.159 1002.43 -802.517 1074.26 -1006.68 1089.43" stroke="#EAEAEA" stroke-width="0.5"/>
<path d="M1353.58 470.964C831.084 809.345 745.778 796.062 471.166 754.183C306.92 765.737 -63.2116 673.956 -235.469 879.635C-407.726 1085.31 -813.618 1180.47 -1016.48 1207.79" stroke="#EAEAEA" stroke-width="0.5"/>
<path d="M1303.88 446.955C802.707 815.891 714.671 801.603 440.153 782.274C275.513 811.078 -103.308 735.71 -262.876 951.299C-422.445 1166.89 -816.58 1284.39 -1017.42 1323.75" stroke="#EAEAEA" stroke-width="0.5"/>
<path d="M1254.55 423.172C776.501 821.339 685.316 806.345 412.611 809.387C249.068 855.506 -137.781 797.281 -284.089 1022.01C-430.397 1246.74 -811.566 1385.54 -1009.66 1436.8" stroke="#EAEAEA" stroke-width="0.5"/>
<path d="M1205.6 399.583C752.387 825.555 657.661 810.201 388.467 835.31C227.514 898.693 -166.642 858.321 -299.166 1091.38C-431.69 1324.44 -798.765 1483.43 -993.401 1546.4" stroke="#EAEAEA" stroke-width="0.5"/>
<path d="M1157.03 376.159C730.28 828.408 631.653 813.083 367.634 859.836C210.763 940.315 -189.924 918.48 -308.189 1159.04C-426.454 1399.59 -778.396 1577.59 -968.878 1652.06" stroke="#EAEAEA" stroke-width="0.5"/>
<path d="M1108.84 352.872C710.083 829.778 607.232 814.912 350.013 882.765C198.701 980.057 -207.682 977.413 -311.264 1224.6C-414.846 1471.8 -750.705 1667.59 -936.351 1753.28" stroke="#EAEAEA" stroke-width="0.5"/>
<path d="M1061.03 329.695C691.697 829.547 584.337 815.608 335.494 903.903C191.198 1017.61 -219.992 1034.78 -308.52 1287.72C-397.048 1540.66 -715.966 1752.98 -896.11 1849.59" stroke="#EAEAEA" stroke-width="0.5"/>
<path d="M1013.6 306.602C675.011 827.608 562.898 815.099 323.953 923.067C188.1 1052.68 -226.951 1090.24 -300.108 1348.02C-373.265 1605.81 -674.479 1833.36 -848.474 1940.54" stroke="#EAEAEA" stroke-width="0.5"/>
<path d="M966.546 283.566C659.911 823.859 542.849 813.314 315.256 940.077C189.235 1084.97 -228.678 1143.47 -286.202 1405.17C-343.726 1666.87 -626.567 1908.31 -793.79 2025.68" stroke="#EAEAEA" stroke-width="0.5"/>
<path d="M919.854 260.564C646.275 818.206 524.114 810.188 309.261 954.767C194.413 1114.21 -225.311 1194.14 -266.996 1458.82C-308.682 1723.5 -572.577 1977.48 -732.428 2104.61" stroke="#EAEAEA" stroke-width="0.5"/>
<path d="M873.52 237.573C633.979 810.566 506.621 805.661 305.813 966.979C203.427 1140.14 -217.008 1241.94 -242.706 1508.65C-268.403 1775.36 -512.878 2040.5 -664.784 2176.94" stroke="#EAEAEA" stroke-width="0.5"/>
<path d="M827.534 214.571C622.889 800.861 490.289 799.675 304.749 976.565C216.049 1162.5 -203.949 1286.56 -213.567 1554.34C-223.185 1822.13 -447.86 2097.04 -591.276 2242.3" stroke="#EAEAEA" stroke-width="0.5"/>
<path d="M781.885 191.539C612.87 789.024 475.039 792.18 305.897 983.388C232.039 1181.07 -186.33 1327.71 -179.834 1595.61C-173.338 1863.51 -377.931 2146.8 -512.342 2300.36" stroke="#EAEAEA" stroke-width="0.5"/>
<path d="M736.565 168.457C603.785 774.994 460.789 783.124 309.08 987.322C251.143 1195.62 -164.364 1365.11 -141.778 1632.17C-119.192 1899.22 -303.515 2189.51 -428.44 2350.81" stroke="#EAEAEA" stroke-width="0.5"/>
<path d="M691.561 145.307C595.491 758.724 447.455 772.466 314.111 988.253C273.091 1205.97 -138.285 1398.49 -99.6891 1663.75C-61.0936 1929 -225.055 2224.89 -340.046 2393.37" stroke="#EAEAEA" stroke-width="0.5"/>
<path d="M646.86 122.074C587.846 740.17 434.954 760.168 320.799 986.078C297.601 1211.91 -108.338 1427.6 -53.8718 1690.11C0.594294 1952.61 -143.004 2252.74 -247.648 2427.79" stroke="#EAEAEA" stroke-width="0.5"/>
<path d="M602.449 98.7438C580.702 719.304 423.197 746.194 328.947 980.707C324.38 1213.3 -74.7884 1452.21 -4.6471 1711.02C65.4942 1969.83 -57.8304 2272.86 -151.753 2453.84" stroke="#EAEAEA" stroke-width="0.5"/>
<path d="M558.315 75.3014C573.913 696.101 412.099 730.514 338.352 972.062C353.125 1209.98 -37.9133 1472.08 47.6515 1726.27C133.216 1980.46 29.9874 2285.06 -52.8767 2471.33" stroke="#EAEAEA" stroke-width="0.5"/>
<path d="M514.447 51.7347C567.332 670.548 401.572 713.102 348.811 960.077C383.525 1201.83 1.99735 1487.01 102.679 1735.67C203.36 1984.33 119.964 2289.22 48.4561 2480.11" stroke="#EAEAEA" stroke-width="0.5"/>
<path d="M470.828 28.0329C560.812 642.642 391.528 693.937 360.114 944.7C415.259 1188.76 44.6389 1496.83 160.076 1739.06C275.513 1981.3 211.606 2285.22 151.71 2480.05" stroke="#EAEAEA" stroke-width="0.5"/>
<path d="M427.446 4.18687C554.207 612.389 381.879 673.003 372.051 925.892C448.003 1170.66 89.6975 1501.35 219.476 1736.29C349.254 1971.24 304.414 2272.98 256.345 2471.04" stroke="#EAEAEA" stroke-width="0.5"/>
<path d="M384.288 -19.8147C547.37 579.799 372.535 650.284 384.41 903.624C481.426 1147.48 136.848 1500.42 280.503 1727.24C424.157 1954.05 397.886 2252.45 361.817 2453.04" stroke="#EAEAEA" stroke-width="0.5"/>
<path d="M341.339 -43.9783C540.157 544.899 363.408 625.773 396.977 877.883C515.193 1119.19 185.756 1493.93 342.772 1711.8C499.788 1929.66 491.519 2223.61 467.578 2426.01" stroke="#EAEAEA" stroke-width="0.5"/>
<path d="M298.586 -68.3118C532.428 507.717 354.411 599.463 409.541 848.666C548.97 1085.75 236.081 1481.75 405.895 1689.89C575.709 1898.03 584.81 2186.47 573.083 2389.96" stroke="#EAEAEA" stroke-width="0.5"/>
<path d="M256.014 -92.8207C524.041 468.295 345.453 571.354 421.889 815.986C582.417 1047.17 287.473 1463.81 469.476 1661.47C651.479 1859.14 677.255 2141.07 677.785 2344.91" stroke="#EAEAEA" stroke-width="0.5"/>
<path d="M213.611 -117.511C514.863 426.681 336.448 541.448 433.81 779.866C615.201 1003.48 339.578 1440.02 533.118 1626.51C726.658 1812.99 768.358 2087.48 781.143 2290.94" stroke="#EAEAEA" stroke-width="0.5"/>
<path d="M171.364 -142.387C504.76 382.93 327.31 509.753 445.098 740.343C646.986 954.72 392.041 1410.34 596.424 1584.98C800.806 1759.62 857.629 2025.8 882.623 2228.15" stroke="#EAEAEA" stroke-width="0.5"/>
<path d="M129.258 -167.453C493.604 337.106 317.95 476.278 455.546 697.465C677.441 900.953 444.496 1374.76 658.99 1536.92C873.483 1699.09 944.581 1956.16 981.693 2156.67" stroke="#EAEAEA" stroke-width="0.5"/>
<path d="M87.2813 -192.711C481.27 289.281 308.283 441.037 464.953 651.293C706.238 842.269 496.584 1333.25 720.419 1482.36C944.253 1631.47 1028.74 1878.7 1077.84 2076.67" stroke="#EAEAEA" stroke-width="0.5"/>
<path d="M45.4218 -218.165C467.641 239.533 298.225 404.048 473.123 601.899C733.059 778.777 547.942 1285.86 780.316 1421.38C1012.69 1556.9 1109.64 1793.63 1170.55 1988.33" stroke="#EAEAEA" stroke-width="0.5"/>
<path d="M3.6648 -243.817C452.601 187.946 287.69 365.332 479.862 549.367C757.588 710.603 598.206 1232.6 838.286 1354.04C1078.37 1475.49 1186.82 1701.14 1259.32 1891.88" stroke="#EAEAEA" stroke-width="0.5"/>
<path d="M-37.9997 -269.665C436.044 134.615 276.598 324.916 484.986 493.795C779.523 637.9 647.019 1173.55 893.944 1280.48C1140.87 1387.42 1259.86 1601.48 1343.69 1787.58" stroke="#EAEAEA" stroke-width="0.5"/>
<path d="M-79.5856 -295.714C417.867 79.6343 264.866 282.826 488.314 435.284C798.566 560.831 694.024 1108.79 946.909 1200.83C1199.79 1292.87 1328.32 1494.92 1423.18 1675.7" stroke="#EAEAEA" stroke-width="0.5"/>
<path d="M-121.105 -321.96C397.972 23.1104 252.412 239.095 489.671 373.955C814.434 479.586 738.868 1038.42 996.807 1115.24C1254.75 1192.06 1391.8 1381.73 1497.35 1556.55" stroke="#EAEAEA" stroke-width="0.5"/>
<path d="M-162.567 -348.406C376.274 -34.8499 239.162 193.758 488.896 309.93C826.858 394.368 781.211 962.572 1043.28 1023.89C1305.35 1085.22 1449.91 1262.24 1565.77 1430.47" stroke="#EAEAEA" stroke-width="0.5"/>
<path d="M-203.986 -375.05C352.687 -94.131 225.034 146.854 485.828 243.349C835.575 305.4 820.711 881.395 1085.97 926.999C1351.23 972.604 1502.28 1136.77 1628.04 1297.82" stroke="#EAEAEA" stroke-width="0.5"/>
<path d="M-245.372 -401.889C327.137 -154.615 209.955 98.4259 480.319 174.354C840.344 212.921 857.043 795.054 1124.54 824.778C1392.04 854.503 1548.57 1005.69 1683.78 1158.97" stroke="#EAEAEA" stroke-width="0.5"/>
<path d="M-286.735 -428.922C299.559 -216.179 193.853 48.5183 472.232 103.099C840.937 117.184 889.889 703.739 1158.67 717.476C1427.45 731.214 1588.45 869.368 1732.62 1014.33" stroke="#EAEAEA" stroke-width="0.5"/>
<path d="M-329.558 -453.775C268.419 -276.326 175.182 -0.448327 459.964 32.1156C835.669 20.8293 917.47 610.027 1186.57 607.729C1455.66 605.43 1620.14 730.57 1772.75 866.689" stroke="#EAEAEA" stroke-width="0.5"/>
<path d="M-372.278 -478.294C235.237 -336.775 155.446 -50.2707 444.967 -40.2753C825.918 -77.7097 941.062 512.296 1209.51 493.971C1477.96 475.645 1644.95 587.86 1805.46 714.653" stroke="#EAEAEA" stroke-width="0.5"/>
<path d="M-414.657 -502.842C200.22 -397.76 134.826 -101.261 427.382 -114.266C811.757 -178.506 960.636 410.424 1227.47 376.137C1494.31 341.85 1662.87 441.297 1830.69 558.309" stroke="#EAEAEA" stroke-width="0.5"/>
<path d="M-456.689 -527.448C163.344 -459.179 113.273 -153.392 407.124 -189.708C793.042 -281.285 975.939 304.639 1240.21 254.513C1504.49 204.388 1673.68 291.291 1848.23 398.103" stroke="#EAEAEA" stroke-width="0.5"/>
<path d="M-498.373 -552.141C124.594 -520.93 90.7333 -206.637 384.116 -266.447C769.646 -385.764 986.731 195.186 1247.49 129.402C1508.25 63.6185 1677.2 138.264 1857.84 234.492" stroke="#EAEAEA" stroke-width="0.5"/>
</svg>
